<mxfile host="app.diagrams.net" modified="2023-07-21T10:00:52.354Z" agent="Mozilla/5.0 (Macintosh; Intel Mac OS X 10_15_7) AppleWebKit/605.1.15 (KHTML, like Gecko) Version/16.5.2 Safari/605.1.15" version="21.6.5" etag="IHDvJLsw5Ezzx0hh8U1b" type="github">
  <diagram name="Сторінка-1" id="Vg0VVnchSDMOhy3Lb6Sz">
    <mxGraphModel>
      <root>
        <mxCell id="0" />
        <mxCell id="1" parent="0" />
      </root>
    </mxGraphModel>
  </diagram>
</mxfile>
